{"title":"Stomp the Yard 2007 BRRip H264 AAC-Rx(Phoenix-RG)","uid":5781089,"size":1993326774,"categoryP":"video","categoryS":"hd___movies","magnet":"?xt=urn:btih:37aced52557c2a138264acc915470022672f295a&amp;dn=Stomp+the+Yard+2007+BRRip+H264+AAC-Rx%28Phoenix-RG%29&amp;tr=udp%3A%2F%2Ftracker.openbittorrent.com%3A80&amp;tr=udp%3A%2F%2Fopen.demonii.com%3A1337&amp;tr=udp%3A%2F%2Ftracker.coppersurfer.tk%3A6969&amp;tr=udp%3A%2F%2Fexodus.desync.com%3A6969","seeders":0,"leechers":1,"uploader":"rev-x","files":7,"time":1282408145,"description":"Stomp the Yard 2007 BRRip H264 AAC-Rx(Phoenix-RG).mp4\n      Format : MPEG-4 / AVC\n      File size : 1.86 GiB\n      Duration : 1h 54mn\n      Encoding : 2 Pass\n      Format profile : &lt;a class=&quot;__cf_email__&quot; href=&quot;/cdn-cgi/l/email-protection&quot; data-cfemail=&quot;ca82a3ada28a86fee4fb&quot;&gt;[email&amp;#160;protected]&lt;/a&gt;&lt;script data-cfhash='f9e31' type=&quot;text/javascript&quot;&gt;\n/* &lt;![CDATA[ */!function(){try{var t=&quot;currentScript&quot;in document?document.currentScript:function(){for(var t=document.getElementsByTagName(&quot;script&quot;),e=t.length;e--;)if(t[e].getAttribute(&quot;data-cfhash&quot;))return t[e]}();if(t&amp;&amp;t.previousSibling){var e,r,n,i,c=t.previousSibling,a=c.getAttribute(&quot;data-cfemail&quot;);if(a){for(e=&quot;&quot;,r=parseInt(a.substr(0,2),16),n=2;a.length-n;n+=2)i=parseInt(a.substr(n,2),16)^r,e+=String.fromCharCode(i);e=document.createTextNode(e),c.parentNode.replaceChild(e,c)}t.parentNode.removeChild(t);}}catch(u){}}()/* ]]&gt; */&lt;/script&gt;\n      Bit rate : 2 000 Kbps\n      Width : 1 280 pixels\n      Height : 536 pixels\n      Display aspect ratio : 2.35\n      Frame rate : 23.976 fps\n      Resolution : 24 bits\n      Colorimetry : 4:2:0\n      Bits/(Pixel*Frame) : 0.122\n      Stream size : 1.60 GiB (86%)\n      \n  Audio\n      Format : AAC / LC\n      Format/Info : Advanced Audio Codec\n      Duration : 1h 54mn\n      Bit rate : 322 Kbps\n      Channel(s) : 6 channels\n      Channel positions : Front: L C R, Rear: L R, LFE\n      Sampling rate : 48.0 KHz\n      Resolution : 16 bits\n      Stream size : 263 MiB (14%)\n\n\nSCREEN:\n &lt;a href=&quot;\nhttp://img507.imageshack.us/img507/7126/vlcsnap941685.jpg&quot; rel=&quot;nofollow&quot; target=&quot;_NEW&quot;&gt;\nhttp://img507.imageshack.us/img507/7126/vlcsnap941685.jpg&lt;/a&gt;\n &lt;a href=&quot;\nhttp://img594.imageshack.us/img594/6235/vlcsnap99791.jpg&quot; rel=&quot;nofollow&quot; target=&quot;_NEW&quot;&gt;\nhttp://img594.imageshack.us/img594/6235/vlcsnap99791.jpg&lt;/a&gt;\n &lt;a href=&quot;\nhttp://img339.imageshack.us/img339/7291/vlcsnap946199.jpg&quot; rel=&quot;nofollow&quot; target=&quot;_NEW&quot;&gt;\nhttp://img339.imageshack.us/img339/7291/vlcsnap946199.jpg&lt;/a&gt;","torrent":{"xt":"urn:btih:37aced52557c2a138264acc915470022672f295a","amp;dn":"Stomp+the+Yard+2007+BRRip+H264+AAC-Rx%28Phoenix-RG%29","amp;tr":["udp%3A%2F%2Ftracker.openbittorrent.com%3A80","udp%3A%2F%2Fopen.demonii.com%3A1337","udp%3A%2F%2Ftracker.coppersurfer.tk%3A6969","udp%3A%2F%2Fexodus.desync.com%3A6969"],"infoHash":"37aced52557c2a138264acc915470022672f295a","infoHashBuffer":{"type":"Buffer","data":[55,172,237,82,85,124,42,19,130,100,172,201,21,71,0,34,103,47,41,90]},"announce":[],"urlList":[]}}